<svg xmlns="http://www.w3.org/2000/svg" width="1400" height="840" viewBox="0 0 1400 840" role="img" aria-labelledby="title desc">
  <title id="title">Top Ten Cabang dan Top Ten Promotor 2026</title>
  <desc id="desc">Ringkasan statistik top 10 cabang dan top 10 promotor tahun 2026.</desc>
  <defs>
    <style>
      .bg { fill: #f8fafc; }
      .panel { fill: #ffffff; stroke: #d1d5db; stroke-width: 2; }
      .title { fill: #0f172a; font: 700 42px Arial, sans-serif; }
      .th { fill: #0b8f7a; }
      .th-text { fill: #ffffff; font: 700 28px Arial, sans-serif; }
      .cell { fill: #111827; font: 500 26px Arial, sans-serif; }
      .muted { fill: #374151; font: 500 24px Arial, sans-serif; }
      .row { stroke: #e5e7eb; stroke-width: 1; }
      .highlight { fill: #ecfdf5; }
      .foot { fill: #4b5563; font: 500 20px Arial, sans-serif; }
    </style>
  </defs>

  <rect class="bg" width="1400" height="840" />

  <rect class="panel" x="30" y="30" rx="18" ry="18" width="650" height="780" />
  <rect class="panel" x="720" y="30" rx="18" ry="18" width="650" height="780" />

  <text class="title" x="355" y="95" text-anchor="middle">Top Ten Cabang 2026</text>
  <text class="title" x="1045" y="95" text-anchor="middle">Top Ten Promotor 2026</text>

  <rect class="th" x="55" y="120" width="600" height="52" />
  <text class="th-text" x="80" y="154">#</text>
  <text class="th-text" x="155" y="154">Nama</text>
  <text class="th-text" x="600" y="154" text-anchor="end">Jumlah</text>

  <line class="row" x1="55" y1="172" x2="655" y2="172" />
  <text class="muted" x="85" y="214">1</text><text class="cell" x="155" y="214">Cabang Khusus Kota Sleman</text><text class="muted" x="600" y="214" text-anchor="end">1471</text>
  <line class="row" x1="55" y1="234" x2="655" y2="234" />
  <text class="muted" x="85" y="276">2</text><text class="cell" x="155" y="276">Cabang Khusus Binjai</text><text class="muted" x="600" y="276" text-anchor="end">820</text>
  <line class="row" x1="55" y1="296" x2="655" y2="296" />
  <text class="muted" x="85" y="338">3</text><text class="cell" x="155" y="338">Cabang Khusus Tangerang Selatan</text><text class="muted" x="600" y="338" text-anchor="end">640</text>
  <line class="row" x1="55" y1="358" x2="655" y2="358" />
  <text class="muted" x="85" y="400">4</text><text class="cell" x="155" y="400">Cabang Khusus Jakarta Timur</text><text class="muted" x="600" y="400" text-anchor="end">425</text>
  <line class="row" x1="55" y1="420" x2="655" y2="420" />
  <text class="muted" x="85" y="462">5</text><text class="cell" x="155" y="462">Cabang Khusus Kab Lebak</text><text class="muted" x="600" y="462" text-anchor="end">392</text>
  <line class="row" x1="55" y1="482" x2="655" y2="482" />
  <text class="muted" x="85" y="524">6</text><text class="cell" x="155" y="524">Cabang Khusus Batam</text><text class="muted" x="600" y="524" text-anchor="end">323</text>
  <line class="row" x1="55" y1="544" x2="655" y2="544" />
  <text class="muted" x="85" y="586">7</text><text class="cell" x="155" y="586">Cabang Khusus Kota Batu</text><text class="muted" x="600" y="586" text-anchor="end">266</text>
  <line class="row" x1="55" y1="606" x2="655" y2="606" />
  <text class="muted" x="85" y="648">8</text><text class="cell" x="155" y="648">Cabang Khusus Kota Tangerang</text><text class="muted" x="600" y="648" text-anchor="end">262</text>
  <line class="row" x1="55" y1="668" x2="655" y2="668" />
  <text class="muted" x="85" y="710">9</text><text class="cell" x="155" y="710">Cabang Khusus Kota Metro</text><text class="muted" x="600" y="710" text-anchor="end">242</text>
  <line class="row" x1="55" y1="730" x2="655" y2="730" />
  <text class="muted" x="85" y="752">10</text><text class="cell" x="155" y="752">Cabang Khusus Jakarta Selatan</text><text class="muted" x="600" y="752" text-anchor="end">239</text>

  <rect class="th" x="745" y="120" width="600" height="52" />
  <text class="th-text" x="770" y="154">#</text>
  <text class="th-text" x="845" y="154">Nama</text>
  <text class="th-text" x="1290" y="154" text-anchor="end">Jumlah</text>

  <line class="row" x1="745" y1="172" x2="1345" y2="172" />
  <rect class="highlight" x="745" y="172" width="600" height="62" />
  <text class="muted" x="775" y="214">1</text><text class="cell" x="845" y="214">Idayani Sijabat SH</text><text class="muted" x="1290" y="214" text-anchor="end">343</text>
  <line class="row" x1="745" y1="234" x2="1345" y2="234" />
  <rect class="highlight" x="745" y="234" width="600" height="62" />
  <text class="muted" x="775" y="276">2</text><text class="cell" x="845" y="276">Putra Andica Siagian</text><text class="muted" x="1290" y="276" text-anchor="end">238</text>
  <line class="row" x1="745" y1="296" x2="1345" y2="296" />
  <text class="muted" x="775" y="338">3</text><text class="cell" x="845" y="338">Solver Reza</text><text class="muted" x="1290" y="338" text-anchor="end">206</text>
  <line class="row" x1="745" y1="358" x2="1345" y2="358" />
  <rect class="highlight" x="745" y="358" width="600" height="62" />
  <text class="muted" x="775" y="400">4</text><text class="cell" x="845" y="400">Ardi Wardianto</text><text class="muted" x="1290" y="400" text-anchor="end">203</text>
  <line class="row" x1="745" y1="420" x2="1345" y2="420" />
  <rect class="highlight" x="745" y="420" width="600" height="62" />
  <text class="muted" x="775" y="462">5</text><text class="cell" x="845" y="462">Purwati Sugito</text><text class="muted" x="1290" y="462" text-anchor="end">182</text>
  <line class="row" x1="745" y1="482" x2="1345" y2="482" />
  <text class="muted" x="775" y="524">6</text><text class="cell" x="845" y="524">RINA SETIAWATI</text><text class="muted" x="1290" y="524" text-anchor="end">158</text>
  <line class="row" x1="745" y1="544" x2="1345" y2="544" />
  <rect class="highlight" x="745" y="544" width="600" height="62" />
  <text class="muted" x="775" y="586">7</text><text class="cell" x="845" y="586">Ihya Ulumuddin</text><text class="muted" x="1290" y="586" text-anchor="end">146</text>
  <line class="row" x1="745" y1="606" x2="1345" y2="606" />
  <rect class="highlight" x="745" y="606" width="600" height="62" />
  <text class="muted" x="775" y="648">8</text><text class="cell" x="845" y="648">Yenni Ramadhani Putri</text><text class="muted" x="1290" y="648" text-anchor="end">134</text>
  <line class="row" x1="745" y1="668" x2="1345" y2="668" />
  <text class="muted" x="775" y="710">9</text><text class="cell" x="845" y="710">Endang Juaitah</text><text class="muted" x="1290" y="710" text-anchor="end">111</text>
  <line class="row" x1="745" y1="730" x2="1345" y2="730" />
  <rect class="highlight" x="745" y="730" width="600" height="24" />
  <text class="muted" x="775" y="752">10</text><text class="cell" x="845" y="752">Joko Santoso</text><text class="muted" x="1290" y="752" text-anchor="end">108</text>
</svg>
